<svg width="142" height="50" viewBox="0 0 142 50" fill="none" xmlns="http://www.w3.org/2000/svg">
<rect x="1" y="1" width="140" height="48" rx="8" fill="white"/>
<rect x="1" y="1" width="140" height="48" rx="8" stroke="#CCCDCE"/>
<g clip-path="url(#clip0_0_151)">
<path d="M74.7037 30.1244C75.4629 29.5475 76.1038 28.8667 76.5497 28.0158C76.5779 27.9623 76.6028 27.9073 76.6521 27.8058C74.7446 27.8058 72.8723 27.8058 71 27.8058C71 25.9359 71 24.0664 71 22.1965C71.078 22.1936 71.156 22.1889 71.234 22.1889C74.8258 22.1885 78.4182 22.1885 82.0105 22.1885C82.4987 22.1885 82.7392 22.3966 82.8139 22.8796C82.875 23.2743 82.938 23.6689 83.0005 24.0636C83.0005 24.704 83.0005 25.3448 83.0005 25.9852C82.9558 26.0035 82.9568 26.0435 82.954 26.082C82.8722 27.1015 82.6448 28.0905 82.2887 29.0471C81.5398 31.0575 80.3525 32.763 78.7015 34.1396C78.6437 34.0767 78.5887 34.0109 78.5281 33.9503C77.253 32.6747 75.9783 31.3995 74.7037 30.1244Z" fill="#2B76E5"/>
<path d="M64.9354 26.8619C65.2826 27.8801 65.8145 28.784 66.5958 29.5311C67.7887 30.6713 69.2095 31.2727 70.8605 31.3272C70.907 31.3286 70.9535 31.3333 71 31.3366C71 33.2244 71 35.1127 71 37.0005C70.6721 37.0005 70.3436 37.0005 70.0157 37.0005C69.7803 36.8877 69.52 36.9117 69.2724 36.8722C66.0353 36.3549 63.4427 34.7655 61.4483 32.18C61.1772 31.8285 60.9197 31.4654 60.7177 31.0669C60.8013 30.9852 60.8854 30.9044 60.9681 30.8222C62.2907 29.5019 63.6133 28.1822 64.9354 26.8619Z" fill="#00C55F"/>
<path d="M71.0005 37.0005C71.0005 35.1127 71.0005 33.2244 71.0005 31.3366C72.3541 31.2957 73.5972 30.918 74.7042 30.1245C75.9788 31.3996 77.2535 32.6752 78.5272 33.9508C78.5873 34.0114 78.6428 34.0767 78.7006 34.1401C78.4938 34.3421 78.2599 34.5103 78.0273 34.679C76.4548 35.8169 74.7192 36.563 72.7957 36.8666C72.51 36.9117 72.2145 36.8985 71.9383 37.0009C71.6254 37.0005 71.3129 37.0005 71.0005 37.0005Z" fill="#00A967"/>
<path d="M60.7224 18.9208C61.4995 17.5715 62.5223 16.4363 63.7524 15.4887C65.5419 14.1097 67.5641 13.3002 69.8104 13.0606C70.205 13.0183 70.6025 12.9812 71.0014 13.0089C71.0014 14.8943 71.0014 16.7798 71.0014 18.6652C69.4557 18.6958 68.0805 19.1886 66.8993 20.1941C66.0179 20.9439 65.3893 21.8704 65.0035 22.9614C64.98 23.0272 64.9537 23.092 64.9283 23.1573C64.8607 23.0821 64.7968 23.0032 64.7254 22.9318C63.3915 21.5942 62.0567 20.2575 60.7224 18.9208Z" fill="#FE5501"/>
<path d="M60.7224 18.9208C62.0567 20.2575 63.3911 21.5942 64.7249 22.9318C64.7963 23.0032 64.8602 23.0821 64.9279 23.1573C64.7991 23.6943 64.6916 24.2337 64.6732 24.7886C64.6497 25.4943 64.7587 26.1821 64.9354 26.862C63.6133 28.1822 62.2907 29.5024 60.9681 30.8222C60.8854 30.9049 60.8013 30.9852 60.7177 31.067C60.0642 30.0197 59.6084 28.8893 59.3261 27.6912C58.5988 24.6039 59.1034 21.7051 60.6806 18.9749C60.6919 18.9551 60.7083 18.9387 60.7224 18.9208Z" fill="#FED701"/>
<path d="M71.0009 18.6652C71.0009 16.7798 71.0009 14.8943 71.0009 13.0089C72.8183 12.9849 74.5303 13.4167 76.1611 14.2004C77.0435 14.6242 77.8544 15.1588 78.6118 15.7771C78.9998 16.0938 79.036 16.5613 78.6813 16.9174C77.7059 17.8975 76.7259 18.8724 75.7434 19.8454C75.4427 20.1433 75.1115 20.1724 74.7728 19.9253C73.8937 19.283 72.9183 18.8818 71.8415 18.7338C71.5629 18.6957 71.281 18.6873 71.0009 18.6652Z" fill="#FE0E01"/>
<path d="M71 22.196C71 24.066 71 25.9354 71 27.8054C70.5861 27.7871 70.3009 27.5193 70.2995 27.1166C70.2938 25.7057 70.2938 24.2948 70.2995 22.8843C70.3009 22.4822 70.5875 22.2134 71 22.196Z" fill="#1688FB"/>
</g>
<defs>
<clipPath id="clip0_0_151">
<rect width="24" height="24.0009" fill="white" transform="translate(59 12.9995)"/>
</clipPath>
</defs>
</svg>
