<svg width="14" height="14" viewBox="0 0 14 14" fill="none" xmlns="http://www.w3.org/2000/svg">
<path d="M7.9898 7.00004L12.3949 2.59494C12.5262 2.46369 12.5999 2.28566 12.5999 2.10004C12.5999 1.91442 12.5262 1.7364 12.3949 1.60514C12.2636 1.47389 12.0856 1.40015 11.9 1.40015C11.7144 1.40015 11.5364 1.47389 11.4051 1.60514L7 6.01024L2.5949 1.60514C2.52991 1.54015 2.45275 1.4886 2.36784 1.45342C2.28292 1.41825 2.19191 1.40015 2.1 1.40015C2.00809 1.40015 1.91708 1.41825 1.83216 1.45342C1.74725 1.4886 1.67009 1.54015 1.6051 1.60514C1.47384 1.7364 1.4001 1.91442 1.4001 2.10004C1.4001 2.28566 1.47384 2.46369 1.6051 2.59494L6.0102 7.00004L1.6051 11.4051C1.47384 11.5364 1.4001 11.7144 1.4001 11.9C1.4001 12.0857 1.47384 12.2637 1.6051 12.3949C1.73635 12.5262 1.91438 12.5999 2.1 12.5999C2.28562 12.5999 2.46364 12.5262 2.5949 12.3949L7 7.98984L11.4051 12.3949C11.47 12.4602 11.5471 12.5119 11.632 12.5473C11.7169 12.5826 11.808 12.6008 11.9 12.6008C11.992 12.6008 12.0831 12.5826 12.168 12.5473C12.2529 12.5119 12.33 12.4602 12.3949 12.3949C12.46 12.33 12.5116 12.2528 12.5468 12.1679C12.582 12.083 12.6001 11.992 12.6001 11.9C12.6001 11.8081 12.582 11.7171 12.5468 11.6322C12.5116 11.5472 12.46 11.4701 12.3949 11.4051L7.9898 7.00004Z" fill="white"/>
</svg>
