<svg width="24" height="24" viewBox="0 0 24 24" fill="none" xmlns="http://www.w3.org/2000/svg">
<path d="M22 12.204V13.725C22 17.625 22 19.576 20.828 20.788C19.657 22 17.771 22 14 22M21.48 7.823C20.962 6.874 20.013 6.286 18.116 5.108L16.116 3.867C14.111 2.622 13.108 2 12 2C10.892 2 9.89 2.622 7.884 3.867L5.884 5.108C3.987 6.286 3.04 6.874 2.52 7.823C2.203 8.403 2.08 9.056 2.032 10M11 22C11 19.6131 10.0518 17.3239 8.36396 15.636C6.67613 13.9482 4.38695 13 2 13" stroke="#ABABAB" stroke-width="1.5" stroke-linecap="round"/>
<path d="M8 22C8 20.4087 7.36786 18.8826 6.24264 17.7574C5.11742 16.6321 3.5913 16 2 16M5 22C5 21.2044 4.68393 20.4413 4.12132 19.8787C3.55871 19.3161 2.79565 19 2 19" stroke="#ABABAB" stroke-width="1.5" stroke-linecap="round"/>
</svg>
