<svg width="320" height="64" viewBox="0 0 320 64" fill="none" xmlns="http://www.w3.org/2000/svg">
<rect x="14" y="8" width="140" height="48" rx="8" fill="white"/>
<rect x="14" y="8" width="140" height="48" rx="8" stroke="#CCCDCE"/>
<g clip-path="url(#clip0_1_1049)">
<path d="M87.7037 37.1244C88.4629 36.5475 89.1038 35.8667 89.5497 35.0158C89.5779 34.9623 89.6028 34.9073 89.6521 34.8058C87.7446 34.8058 85.8723 34.8058 84 34.8058C84 32.9359 84 31.0664 84 29.1965C84.078 29.1936 84.156 29.1889 84.234 29.1889C87.8258 29.1885 91.4182 29.1885 95.0105 29.1885C95.4987 29.1885 95.7392 29.3966 95.8139 29.8796C95.875 30.2743 95.938 30.6689 96.0005 31.0636C96.0005 31.704 96.0005 32.3448 96.0005 32.9852C95.9558 33.0035 95.9568 33.0435 95.954 33.082C95.8722 34.1015 95.6448 35.0905 95.2887 36.0471C94.5398 38.0575 93.3525 39.763 91.7015 41.1396C91.6437 41.0767 91.5887 41.0109 91.5281 40.9503C90.253 39.6747 88.9783 38.3995 87.7037 37.1244Z" fill="#2B76E5"/>
<path d="M77.9354 33.8619C78.2826 34.8801 78.8145 35.784 79.5958 36.5311C80.7887 37.6713 82.2095 38.2727 83.8605 38.3272C83.907 38.3286 83.9535 38.3333 84 38.3366C84 40.2244 84 42.1127 84 44.0005C83.6721 44.0005 83.3436 44.0005 83.0157 44.0005C82.7803 43.8877 82.52 43.9117 82.2724 43.8722C79.0353 43.3549 76.4427 41.7655 74.4483 39.18C74.1772 38.8285 73.9197 38.4654 73.7177 38.0669C73.8013 37.9852 73.8854 37.9044 73.9681 37.8222C75.2907 36.5019 76.6133 35.1822 77.9354 33.8619Z" fill="#00C55F"/>
<path d="M84.0005 44.0005C84.0005 42.1127 84.0005 40.2244 84.0005 38.3366C85.3541 38.2957 86.5972 37.918 87.7042 37.1245C88.9788 38.3996 90.2535 39.6752 91.5272 40.9508C91.5873 41.0114 91.6428 41.0767 91.7006 41.1401C91.4938 41.3421 91.2599 41.5103 91.0273 41.679C89.4548 42.8169 87.7192 43.563 85.7957 43.8666C85.51 43.9117 85.2145 43.8985 84.9383 44.0009C84.6254 44.0005 84.3129 44.0005 84.0005 44.0005Z" fill="#00A967"/>
<path d="M73.7224 25.9208C74.4995 24.5715 75.5223 23.4363 76.7524 22.4887C78.5419 21.1097 80.5641 20.3002 82.8104 20.0606C83.205 20.0183 83.6025 19.9812 84.0014 20.0089C84.0014 21.8943 84.0014 23.7798 84.0014 25.6652C82.4557 25.6958 81.0805 26.1886 79.8993 27.1941C79.0179 27.9439 78.3893 28.8704 78.0035 29.9614C77.98 30.0272 77.9537 30.092 77.9283 30.1573C77.8607 30.0821 77.7968 30.0032 77.7254 29.9318C76.3915 28.5942 75.0567 27.2575 73.7224 25.9208Z" fill="#FE5501"/>
<path d="M73.7224 25.9208C75.0567 27.2575 76.3911 28.5942 77.7249 29.9318C77.7963 30.0032 77.8602 30.0821 77.9279 30.1573C77.7991 30.6943 77.6916 31.2337 77.6732 31.7886C77.6497 32.4943 77.7587 33.1821 77.9354 33.862C76.6133 35.1822 75.2907 36.5024 73.9681 37.8222C73.8854 37.9049 73.8013 37.9852 73.7177 38.067C73.0642 37.0197 72.6084 35.8893 72.3261 34.6912C71.5988 31.6039 72.1034 28.7051 73.6806 25.9749C73.6919 25.9551 73.7083 25.9387 73.7224 25.9208Z" fill="#FED701"/>
<path d="M84.0009 25.6652C84.0009 23.7798 84.0009 21.8943 84.0009 20.0089C85.8183 19.9849 87.5303 20.4167 89.1611 21.2004C90.0435 21.6242 90.8544 22.1588 91.6118 22.7771C91.9998 23.0938 92.036 23.5613 91.6813 23.9174C90.7059 24.8975 89.7259 25.8724 88.7434 26.8454C88.4427 27.1433 88.1115 27.1724 87.7728 26.9253C86.8937 26.283 85.9183 25.8818 84.8415 25.7338C84.5629 25.6957 84.281 25.6873 84.0009 25.6652Z" fill="#FE0E01"/>
<path d="M84 29.196C84 31.066 84 32.9354 84 34.8054C83.5861 34.7871 83.3009 34.5193 83.2995 34.1166C83.2938 32.7057 83.2938 31.2948 83.2995 29.8843C83.3009 29.4822 83.5875 29.2134 84 29.196Z" fill="#1688FB"/>
</g>
<rect x="166" y="8" width="140" height="48" rx="8" fill="white"/>
<rect x="166" y="8" width="140" height="48" rx="8" stroke="#CCCDCE"/>
<g clip-path="url(#clip1_1_1049)">
<path d="M224 33.0625C224 32.3908 224 31.7191 224 31.0474C224.079 31.0136 224.047 30.9403 224.054 30.8844C224.312 28.4687 225.195 26.3086 226.75 24.4406C230.525 19.9032 236.879 18.7628 241.996 21.6886C246.543 24.2879 248.898 29.682 247.682 34.775C246.875 38.1606 244.941 40.7313 241.944 42.4941C240.689 43.232 239.331 43.697 237.885 43.923C237.88 43.8811 237.872 43.8506 237.872 43.8201C237.872 41.1183 237.873 38.4161 237.868 35.7144C237.867 35.5533 237.934 35.5434 238.061 35.5439C238.826 35.5481 239.592 35.5458 240.357 35.5458C240.691 35.5458 240.682 35.5444 240.729 35.216C240.87 34.247 241.009 33.2776 241.174 32.3128C241.212 32.0873 241.148 32.0737 240.964 32.0747C239.996 32.0812 239.027 32.0784 238.059 32.077C237.974 32.077 237.865 32.1151 237.87 31.954C237.898 31.1122 237.818 30.2682 237.916 29.4274C238.007 28.6449 238.587 28.0906 239.374 27.9953C239.967 27.9234 240.559 27.968 241.152 27.9568C241.28 27.9544 241.345 27.9436 241.344 27.7844C241.335 26.9098 241.337 26.0352 241.343 25.1606C241.344 25.0324 241.301 24.9774 241.178 24.9624C240.056 24.8243 238.933 24.6688 237.801 24.8206C236.784 24.9568 235.89 25.3555 235.198 26.1446C234.46 26.9868 234.165 27.9972 234.13 29.0869C234.1 30.015 234.119 30.9455 234.127 31.8746C234.129 32.0366 234.089 32.0841 233.922 32.0826C233.056 32.0737 232.189 32.0873 231.322 32.0723C231.106 32.0686 231.071 32.1357 231.073 32.3321C231.083 33.3316 231.082 34.3311 231.073 35.3307C231.072 35.5035 231.112 35.5528 231.29 35.5509C232.156 35.5406 233.023 35.5538 233.89 35.5411C234.093 35.5383 234.128 35.6007 234.128 35.7881C234.122 38.4199 234.124 41.0516 234.124 43.6834C234.124 43.7604 234.124 43.8375 234.124 43.9168C232.969 43.7778 231.564 43.3344 230.297 42.6237C226.853 40.6923 224.799 37.7722 224.135 33.8774C224.088 33.6059 224.116 33.3217 224 33.0625Z" fill="#0079F9"/>
</g>
<defs>
<clipPath id="clip0_1_1049">
<rect width="24" height="24.0009" fill="white" transform="translate(72 19.9995)"/>
</clipPath>
<clipPath id="clip1_1_1049">
<rect width="24" height="23.8459" fill="white" transform="translate(224 20.077)"/>
</clipPath>
</defs>
</svg>
