<svg width="182" height="180" viewBox="0 0 182 180" fill="none" xmlns="http://www.w3.org/2000/svg">
<path d="M45.5334 29.2134C45.5334 29.2134 72.9331 50.0054 114.588 11.1275C151.582 -23.3991 181.787 31.0764 181.998 57.164C182.272 90.9583 145.005 117.998 163.091 140.194C181.176 162.39 127.224 199.044 98.1465 167.323C61.9749 127.863 52.1757 159.924 31.558 159.924C16.7606 159.924 -13.6201 123.156 6.89561 95.8017C24.1593 72.784 14.744 65.1441 10.184 57.164C3.60738 45.6549 19.2269 14.4159 45.5334 29.2134Z" fill="#DEE9FF"/>
<path d="M153.542 124.403L52.9442 155.288C51.2774 155.799 49.4758 155.627 47.9357 154.81C46.3956 153.993 45.243 152.598 44.7316 150.931L32.9676 112.622L23.2013 80.8077L23.0122 80.1993L24.3521 78.6538L68.0703 28.2448C68.2705 28.0114 68.5328 27.8396 68.8268 27.7494C69.1207 27.6591 69.4342 27.6541 69.7309 27.735L134.231 44.9412L136.18 45.459L136.78 47.3991L157.899 116.183C158.409 117.85 158.237 119.652 157.42 121.193C156.603 122.734 155.209 123.889 153.542 124.403Z" fill="#418DF9"/>
<path d="M136.78 47.3986L98.6518 92.3171V89.8509L134.231 44.9406L136.18 45.4585L136.78 47.3986Z" fill="#208AF2"/>
<path d="M153.659 124.364C153.584 124.388 153.504 124.388 153.429 124.364L91.8552 101.502C91.8055 101.483 91.7609 101.452 91.7251 101.413C91.6892 101.374 91.663 101.327 91.6486 101.276C91.6343 101.225 91.6321 101.171 91.6422 101.119C91.6524 101.066 91.6747 101.017 91.7073 100.975L102 88.1349L135.787 45.9545C135.824 45.9066 135.874 45.8697 135.93 45.8481C135.987 45.8265 136.048 45.8209 136.108 45.8319C136.167 45.843 136.222 45.8702 136.267 45.9107C136.312 45.9512 136.345 46.0033 136.363 46.0613L157.753 115.74L157.893 116.184C158.401 117.83 158.242 119.61 157.45 121.14C156.658 122.67 155.297 123.828 153.659 124.364Z" fill="#A2BDFF"/>
<path d="M87.9241 98.9185L87.3652 100.086L23.6206 80.3887C23.5624 80.3707 23.5003 80.3689 23.4411 80.3836C23.3818 80.3982 23.3278 80.4288 23.2846 80.4719C23.2415 80.515 23.2109 80.5691 23.1963 80.6283C23.1816 80.6875 23.1833 80.7496 23.2013 80.8079L23.0122 80.1995L24.3521 78.654L87.9241 98.9185Z" fill="#208AF2"/>
<path d="M91.1545 101.713L53.0183 155.19C52.9745 155.256 52.9067 155.303 52.8292 155.321C51.1734 155.797 49.397 155.604 47.8824 154.783C46.3678 153.962 45.2364 152.579 44.7316 150.931L32.9676 112.623L23.2014 80.808C23.1833 80.7498 23.1816 80.6877 23.1963 80.6285C23.2109 80.5693 23.2415 80.5152 23.2846 80.4721C23.3278 80.4289 23.3819 80.3984 23.4411 80.3837C23.5003 80.3691 23.5624 80.3709 23.6206 80.3889L87.3647 100.086L90.9814 101.204C91.0314 101.22 91.077 101.247 91.1145 101.284C91.152 101.32 91.1804 101.365 91.1972 101.415C91.2141 101.464 91.219 101.517 91.2116 101.569C91.2042 101.621 91.1846 101.671 91.1545 101.713Z" fill="#A2BDFF"/>
<path d="M153.54 124.404L52.9482 155.289C51.4252 155.751 49.7862 155.648 48.3338 154.996C46.8813 154.345 45.7135 153.19 45.046 151.745C44.9334 151.498 44.8835 151.228 44.9006 150.957C44.9177 150.686 45.0013 150.424 45.1441 150.193L85.2337 84.891C85.4431 84.5499 85.7698 84.2969 86.1524 84.1794C86.535 84.062 86.9473 84.0881 87.3121 84.2529L157.14 115.807C157.388 115.917 157.604 116.088 157.77 116.302C157.936 116.517 158.047 116.769 158.092 117.036C158.35 118.607 158.032 120.218 157.195 121.572C156.358 122.926 155.06 123.932 153.54 124.404Z" fill="#699CFF"/>
<path d="M133.683 21.881C133.624 21.881 133.565 21.8657 133.513 21.8367C133.461 21.8077 133.417 21.7659 133.386 21.7152C133.354 21.6646 133.337 21.6067 133.334 21.5472C133.331 21.4876 133.343 21.4284 133.37 21.375C133.67 20.7684 133.83 20.4357 133.831 20.4349C133.85 20.3918 133.877 20.3529 133.912 20.3207C133.946 20.2884 133.986 20.2633 134.03 20.247C134.075 20.2307 134.122 20.2235 134.169 20.2257C134.216 20.228 134.262 20.2397 134.304 20.2602C134.346 20.2806 134.384 20.3094 134.415 20.3448C134.446 20.3803 134.47 20.4216 134.485 20.4663C134.499 20.511 134.505 20.5583 134.501 20.6052C134.497 20.6521 134.484 20.6977 134.462 20.7394C134.462 20.7394 134.3 21.0743 133.997 21.686C133.968 21.7445 133.923 21.7938 133.868 21.8282C133.813 21.8627 133.749 21.8809 133.683 21.881Z" fill="white"/>
<path d="M98.294 71.8056C98.2273 71.8056 98.162 71.7866 98.1057 71.7507C98.0495 71.7148 98.0047 71.6637 97.9765 71.6032C97.9483 71.5428 97.938 71.4755 97.9467 71.4094C97.9554 71.3433 97.9828 71.281 98.0257 71.2299C98.4786 70.6902 98.9088 70.1549 99.3047 69.6386C99.3613 69.5648 99.4448 69.5166 99.537 69.5044C99.6291 69.4922 99.7223 69.5172 99.7961 69.5738C99.8699 69.6303 99.9181 69.7139 99.9303 69.806C99.9424 69.8982 99.9175 69.9914 99.8609 70.0652C99.4589 70.5894 99.0221 71.1329 98.5627 71.6805C98.5298 71.7197 98.4887 71.7512 98.4422 71.7729C98.3958 71.7945 98.3452 71.8057 98.294 71.8056ZM100.789 68.5368C100.726 68.5367 100.663 68.5193 100.609 68.4864C100.554 68.4535 100.509 68.4064 100.48 68.3501C100.45 68.2938 100.436 68.2305 100.44 68.1669C100.443 68.1033 100.464 68.0419 100.5 67.9892C100.901 67.3996 101.263 66.8214 101.578 66.2705C101.601 66.2305 101.631 66.1954 101.668 66.1672C101.704 66.139 101.746 66.1183 101.79 66.1062C101.834 66.0941 101.881 66.0908 101.926 66.0966C101.972 66.1024 102.016 66.1171 102.056 66.14C102.096 66.1628 102.131 66.1933 102.159 66.2296C102.188 66.266 102.208 66.3076 102.22 66.352C102.233 66.3964 102.236 66.4428 102.23 66.4884C102.224 66.5341 102.21 66.5781 102.187 66.6181C101.863 67.1849 101.491 67.7787 101.079 68.3834C101.047 68.4307 101.004 68.4694 100.953 68.4961C100.903 68.5228 100.847 68.5368 100.789 68.5368H100.789ZM100.717 65.1964H100.711C100.003 65.1997 99.3026 65.0465 98.6603 64.7478C98.6186 64.7284 98.5811 64.7009 98.55 64.6669C98.5189 64.633 98.4949 64.5932 98.4791 64.55C98.4634 64.5067 98.4564 64.4608 98.4584 64.4148C98.4604 64.3688 98.4715 64.3237 98.4909 64.282C98.5104 64.2403 98.5379 64.2028 98.5718 64.1718C98.6058 64.1407 98.6455 64.1166 98.6888 64.1009C98.732 64.0851 98.778 64.0781 98.8239 64.0801C98.8699 64.0821 98.9151 64.0932 98.9568 64.1127C99.5065 64.3677 100.106 64.4982 100.712 64.4948C100.74 64.4948 100.77 64.4948 100.798 64.4948H100.805C100.851 64.4944 100.897 64.503 100.94 64.5202C100.982 64.5375 101.021 64.5629 101.054 64.5952C101.087 64.6274 101.113 64.6658 101.131 64.7082C101.149 64.7505 101.158 64.796 101.159 64.842C101.159 64.888 101.151 64.9337 101.133 64.9764C101.116 65.0191 101.091 65.0579 101.059 65.0908C101.026 65.1236 100.988 65.1498 100.946 65.1678C100.903 65.1858 100.858 65.1953 100.812 65.1957C100.78 65.1962 100.749 65.1964 100.717 65.1964H100.717ZM102.804 64.9581C102.724 64.9357 102.651 64.8923 102.592 64.8323C102.534 64.7722 102.493 64.6978 102.473 64.6165C102.453 64.5353 102.455 64.4502 102.479 64.3701C102.503 64.29 102.548 64.2177 102.609 64.1607C102.816 63.6489 102.98 63.1209 103.1 62.5822C103.109 62.5368 103.128 62.4936 103.154 62.4553C103.18 62.417 103.213 62.3842 103.252 62.3588C103.291 62.3335 103.334 62.3161 103.38 62.3076C103.425 62.2991 103.472 62.2998 103.517 62.3095C103.562 62.3193 103.605 62.3379 103.643 62.3643C103.681 62.3908 103.714 62.4245 103.739 62.4636C103.764 62.5026 103.781 62.5462 103.789 62.5919C103.797 62.6375 103.796 62.6843 103.785 62.7295C103.707 63.0879 103.609 63.4418 103.491 63.7893C103.811 63.639 104.138 63.4649 104.471 63.2682C104.55 63.2245 104.644 63.2135 104.732 63.2376C104.819 63.2616 104.894 63.3188 104.941 63.397C104.987 63.4752 105.001 63.5684 104.98 63.6569C104.959 63.7453 104.904 63.8221 104.828 63.871C104.29 64.1926 103.728 64.4697 103.145 64.6995L103.126 64.7443C103.099 64.8075 103.055 64.8613 102.997 64.8992C102.94 64.9371 102.873 64.9574 102.804 64.9575L102.804 64.9581ZM97.124 63.6124C97.039 63.6125 96.9569 63.5816 96.893 63.5254C96.3337 63.0575 95.8617 62.4942 95.4988 61.8616C95.4748 61.821 95.4594 61.7759 95.4532 61.7292C95.4471 61.6824 95.4505 61.6349 95.4632 61.5895C95.4759 61.5441 95.4977 61.5017 95.5271 61.4648C95.5566 61.428 95.5932 61.3975 95.6347 61.3752C95.6763 61.3528 95.7219 61.3391 95.7688 61.3348C95.8158 61.3305 95.8632 61.3357 95.9081 61.3502C95.953 61.3646 95.9945 61.388 96.0301 61.4188C96.0658 61.4497 96.0948 61.4875 96.1156 61.5298C96.4391 62.0884 96.8586 62.5856 97.3548 62.9985C97.4083 63.0455 97.4463 63.1077 97.4636 63.1769C97.4809 63.246 97.4767 63.3188 97.4515 63.3855C97.4264 63.4522 97.3815 63.5096 97.3229 63.5501C97.2643 63.5907 97.1947 63.6124 97.1235 63.6124H97.124ZM106.349 62.763C106.276 62.7631 106.204 62.7402 106.145 62.6976C106.085 62.6549 106.04 62.5946 106.017 62.5252C105.993 62.4558 105.992 62.3808 106.013 62.3106C106.035 62.2405 106.078 62.1788 106.136 62.1343C106.639 61.7489 107.163 61.3107 107.694 60.8317C107.728 60.8009 107.768 60.7771 107.811 60.7617C107.854 60.7463 107.9 60.7395 107.946 60.7419C107.992 60.7443 108.037 60.7556 108.079 60.7754C108.12 60.7952 108.158 60.8229 108.189 60.8571C108.219 60.8913 108.243 60.9312 108.259 60.9745C108.274 61.0179 108.281 61.0639 108.278 61.1098C108.276 61.1558 108.265 61.2008 108.245 61.2424C108.225 61.284 108.197 61.3212 108.163 61.3521C107.619 61.8436 107.08 62.294 106.562 62.6907C106.501 62.7372 106.426 62.7622 106.349 62.7619L106.349 62.763ZM103.551 60.9632C103.467 60.9631 103.386 60.9328 103.322 60.8777C103.259 60.8226 103.217 60.7465 103.205 60.6632C103.129 60.0483 102.865 59.4718 102.45 59.0125C102.387 58.9442 102.354 58.8539 102.357 58.7613C102.361 58.6687 102.401 58.5813 102.469 58.5183C102.537 58.4553 102.627 58.4217 102.72 58.425C102.813 58.4283 102.9 58.4682 102.963 58.5358C103.477 59.0988 103.803 59.8065 103.899 60.5622C103.905 60.6077 103.903 60.6541 103.892 60.6987C103.88 60.7434 103.86 60.7853 103.833 60.8222C103.805 60.8591 103.771 60.8902 103.731 60.9138C103.692 60.9374 103.648 60.9529 103.603 60.9596C103.586 60.962 103.569 60.9632 103.551 60.9632ZM95.5862 60.0652C95.5298 60.0652 95.4742 60.0516 95.4241 60.0255C95.3741 59.9994 95.3311 59.9616 95.2988 59.9153C95.2665 59.869 95.2458 59.8156 95.2386 59.7596C95.2313 59.7037 95.2378 59.6468 95.2572 59.5938C95.4996 58.9349 96.0282 58.361 96.7873 57.9349C96.8684 57.8894 96.9642 57.8779 97.0537 57.903C97.1432 57.9281 97.219 57.9878 97.2646 58.0688C97.3101 58.1499 97.3215 58.2457 97.2964 58.3352C97.2713 58.4247 97.2117 58.5006 97.1306 58.5461C96.5193 58.8894 96.099 59.3351 95.9153 59.8357C95.8905 59.9031 95.8457 59.9612 95.7868 60.0022C95.728 60.0432 95.658 60.0652 95.5862 60.0652ZM109.415 60.015C109.346 60.015 109.278 59.9946 109.221 59.9563C109.163 59.918 109.118 59.8636 109.092 59.7998C109.065 59.7361 109.058 59.6659 109.071 59.598C109.084 59.5302 109.117 59.4678 109.165 59.4186C109.622 58.956 110.094 58.4545 110.567 57.9298C110.629 57.8608 110.717 57.8194 110.809 57.8146C110.902 57.8099 110.993 57.8422 111.062 57.9045C111.131 57.9667 111.173 58.0539 111.177 58.1467C111.182 58.2395 111.15 58.3304 111.087 58.3994C110.607 58.9321 110.128 59.4402 109.664 59.9106C109.632 59.9437 109.593 59.97 109.55 59.9879C109.507 60.0059 109.461 60.0151 109.415 60.015ZM100.951 58.1059C100.92 58.1058 100.889 58.1017 100.859 58.0936C100.236 57.9324 99.5889 57.8912 98.951 57.9723C98.9053 57.9778 98.859 57.9743 98.8147 57.9619C98.7703 57.9495 98.7289 57.9285 98.6927 57.9001C98.6565 57.8717 98.6262 57.8365 98.6036 57.7964C98.581 57.7563 98.5666 57.7121 98.561 57.6664C98.5555 57.6207 98.559 57.5744 98.5714 57.5301C98.5838 57.4858 98.6048 57.4443 98.6332 57.4081C98.6616 57.3719 98.6969 57.3416 98.737 57.319C98.7771 57.2964 98.8212 57.282 98.8669 57.2765C99.5943 57.1844 100.333 57.232 101.042 57.4166C101.124 57.4387 101.196 57.4899 101.243 57.5607C101.29 57.6314 101.31 57.7169 101.299 57.8012C101.287 57.8855 101.246 57.9628 101.182 58.0188C101.118 58.0748 101.036 58.1056 100.951 58.1055V58.1059ZM112.179 56.9608C112.113 56.9607 112.047 56.9416 111.991 56.9057C111.935 56.8698 111.89 56.8186 111.862 56.7581C111.834 56.6976 111.823 56.6304 111.832 56.5642C111.841 56.4981 111.868 56.4358 111.911 56.3848C112.335 55.8801 112.772 55.346 113.208 54.7962C113.236 54.7594 113.272 54.7286 113.312 54.7056C113.353 54.6826 113.397 54.6679 113.443 54.6622C113.489 54.6566 113.536 54.6602 113.581 54.6728C113.625 54.6854 113.667 54.7067 113.704 54.7356C113.74 54.7645 113.77 54.8003 113.793 54.841C113.815 54.8817 113.829 54.9264 113.834 54.9726C113.839 55.0188 113.835 55.0655 113.822 55.11C113.808 55.1545 113.786 55.196 113.757 55.2319C113.317 55.7869 112.876 56.3266 112.448 56.8359C112.415 56.875 112.374 56.9064 112.328 56.928C112.281 56.9496 112.231 56.9608 112.18 56.9608H112.179ZM114.744 53.7351C114.679 53.735 114.615 53.7168 114.559 53.6825C114.504 53.6481 114.459 53.599 114.43 53.5407C114.401 53.4823 114.389 53.4171 114.395 53.3522C114.401 53.2873 114.425 53.2254 114.464 53.1734C114.865 52.6433 115.276 52.0878 115.685 51.5222C115.74 51.4469 115.822 51.3963 115.914 51.3817C116.006 51.367 116.099 51.3894 116.175 51.4439C116.25 51.4984 116.301 51.5806 116.315 51.6724C116.33 51.7642 116.308 51.858 116.253 51.9333C115.84 52.5029 115.427 53.0622 115.023 53.5959C114.991 53.6391 114.949 53.6741 114.9 53.6983C114.852 53.7224 114.798 53.735 114.744 53.7351H114.744ZM117.163 50.3988C117.099 50.3987 117.036 50.3811 116.981 50.3478C116.926 50.3146 116.882 50.267 116.852 50.2102C116.823 50.1534 116.809 50.0896 116.813 50.0257C116.817 49.9618 116.839 49.9002 116.876 49.8477C117.258 49.301 117.649 48.7303 118.039 48.1532C118.091 48.0762 118.172 48.023 118.263 48.0053C118.354 47.9876 118.449 48.007 118.526 48.059C118.603 48.1111 118.656 48.1916 118.674 48.2829C118.691 48.3741 118.672 48.4687 118.62 48.5457C118.228 49.1258 117.835 49.699 117.451 50.2492C117.418 50.2954 117.375 50.3331 117.325 50.3591C117.275 50.3851 117.22 50.3987 117.163 50.3986L117.163 50.3988ZM119.47 46.9841C119.407 46.9841 119.345 46.9669 119.291 46.9345C119.237 46.9021 119.192 46.8557 119.162 46.8001C119.132 46.7445 119.118 46.6818 119.12 46.6186C119.123 46.5555 119.143 46.4943 119.177 46.4415C119.548 45.876 119.925 45.2938 120.297 44.7109C120.347 44.6326 120.426 44.5773 120.516 44.5572C120.607 44.5372 120.702 44.554 120.781 44.604C120.859 44.654 120.914 44.7331 120.934 44.8239C120.954 44.9147 120.937 45.0097 120.887 45.088C120.514 45.6733 120.136 46.258 119.764 46.8263C119.732 46.8747 119.688 46.9145 119.637 46.9421C119.586 46.9696 119.529 46.984 119.471 46.984L119.47 46.9841ZM121.69 43.5076C121.627 43.5076 121.566 43.4908 121.512 43.4591C121.459 43.4273 121.414 43.3818 121.384 43.3272C121.354 43.2726 121.338 43.2108 121.34 43.1484C121.342 43.0859 121.36 43.025 121.393 42.972C121.748 42.4016 122.11 41.8121 122.471 41.2197C122.519 41.1403 122.597 41.0833 122.687 41.0614C122.778 41.0394 122.873 41.0542 122.953 41.1025C123.032 41.1509 123.089 41.2288 123.111 41.3191C123.133 41.4094 123.118 41.5048 123.07 41.5842C122.708 42.1786 122.344 42.7701 121.988 43.3423C121.956 43.3927 121.912 43.4342 121.86 43.463C121.808 43.4917 121.75 43.5068 121.691 43.5068L121.69 43.5076ZM123.833 39.9868C123.771 39.9868 123.71 39.9703 123.657 39.9391C123.603 39.9079 123.559 39.8632 123.528 39.8094C123.498 39.7556 123.482 39.6946 123.483 39.6327C123.483 39.5709 123.5 39.5103 123.532 39.4571C123.886 38.8625 124.234 38.2716 124.577 37.6844C124.6 37.644 124.631 37.6085 124.667 37.5801C124.704 37.5516 124.746 37.5307 124.791 37.5186C124.836 37.5065 124.882 37.5034 124.928 37.5095C124.974 37.5157 125.019 37.5309 125.059 37.5543C125.099 37.5777 125.134 37.6088 125.162 37.6458C125.19 37.6829 125.21 37.7251 125.222 37.7701C125.233 37.815 125.236 37.8619 125.229 37.9078C125.222 37.9537 125.206 37.9978 125.182 38.0376C124.839 38.6264 124.489 39.2191 124.134 39.8157C124.103 39.8678 124.059 39.9109 124.006 39.9408C123.953 39.9708 123.894 39.9865 123.833 39.9865L123.833 39.9868ZM125.911 36.4272C125.85 36.4272 125.789 36.411 125.736 36.3803C125.683 36.3496 125.639 36.3055 125.608 36.2524C125.577 36.1992 125.561 36.1389 125.561 36.0775C125.561 36.0161 125.577 35.9558 125.607 35.9025C125.954 35.2978 126.292 34.701 126.623 34.1123C126.646 34.072 126.676 34.0365 126.712 34.0079C126.748 33.9792 126.79 33.9581 126.834 33.9455C126.879 33.933 126.925 33.9293 126.971 33.9348C127.017 33.9403 127.061 33.9547 127.101 33.9773C127.142 33.9999 127.177 34.0303 127.205 34.0666C127.234 34.1029 127.255 34.1445 127.267 34.189C127.28 34.2334 127.283 34.2799 127.277 34.3257C127.272 34.3715 127.257 34.4157 127.234 34.4559C126.903 35.0455 126.563 35.6436 126.215 36.2502C126.185 36.3036 126.14 36.348 126.087 36.3789C126.034 36.4097 125.973 36.426 125.911 36.426L125.911 36.4272ZM127.932 32.8341C127.871 32.834 127.812 32.8181 127.759 32.7878C127.706 32.7575 127.662 32.714 127.631 32.6615C127.6 32.609 127.583 32.5493 127.582 32.4884C127.581 32.4274 127.597 32.3674 127.626 32.314C127.967 31.6972 128.297 31.0952 128.616 30.5081C128.66 30.4264 128.735 30.3657 128.824 30.3394C128.913 30.313 129.009 30.3232 129.091 30.3675C129.173 30.4119 129.233 30.4869 129.26 30.5761C129.286 30.6652 129.276 30.7612 129.232 30.8428C128.912 31.4307 128.581 32.0342 128.239 32.6531C128.209 32.7078 128.165 32.7533 128.111 32.785C128.057 32.8166 127.995 32.8333 127.933 32.8333L127.932 32.8341ZM129.902 29.2107C129.841 29.2106 129.782 29.1948 129.729 29.1649C129.676 29.135 129.633 29.092 129.601 29.0401C129.57 28.9882 129.553 28.9291 129.552 28.8686C129.55 28.8081 129.565 28.7483 129.593 28.695C129.932 28.0615 130.253 27.4547 130.558 26.8746C130.579 26.8329 130.608 26.7959 130.643 26.7656C130.679 26.7353 130.72 26.7123 130.764 26.6981C130.808 26.6838 130.855 26.6785 130.901 26.6826C130.948 26.6866 130.993 26.6998 131.034 26.7215C131.076 26.7432 131.112 26.7729 131.142 26.8088C131.171 26.8447 131.193 26.8862 131.207 26.9308C131.22 26.9755 131.225 27.0223 131.22 27.0686C131.215 27.115 131.201 27.1598 131.178 27.2007C130.873 27.7807 130.551 28.3889 130.211 29.0252C130.181 29.0811 130.136 29.1277 130.082 29.1602C130.028 29.1927 129.966 29.2099 129.902 29.2099L129.902 29.2107ZM131.821 25.5583C131.761 25.5582 131.701 25.5427 131.649 25.5133C131.597 25.4838 131.553 25.4413 131.522 25.39C131.49 25.3386 131.473 25.2801 131.471 25.22C131.469 25.1599 131.482 25.1003 131.51 25.0469C131.858 24.3719 132.172 23.7572 132.449 23.2118C132.469 23.1705 132.498 23.1337 132.533 23.1034C132.568 23.0732 132.609 23.0502 132.652 23.0357C132.696 23.0212 132.743 23.0155 132.789 23.019C132.835 23.0224 132.88 23.0349 132.921 23.0558C132.962 23.0767 132.999 23.1055 133.029 23.1406C133.059 23.1757 133.081 23.2164 133.096 23.2603C133.11 23.3043 133.115 23.3506 133.112 23.3966C133.108 23.4427 133.095 23.4875 133.074 23.5286C132.797 24.0753 132.482 24.6921 132.133 25.3686C132.103 25.4256 132.058 25.4733 132.003 25.5066C131.948 25.5399 131.885 25.5575 131.821 25.5574L131.821 25.5583Z" fill="white"/>
<path d="M96.2661 74.0987C96.1979 74.0987 96.1312 74.0788 96.0741 74.0415C96.0171 74.0041 95.9722 73.9509 95.9449 73.8884C95.9176 73.8259 95.9092 73.7568 95.9206 73.6896C95.932 73.6224 95.9628 73.5599 96.0091 73.5099C96.2513 73.2488 96.4864 72.9914 96.7145 72.7377C96.7451 72.7026 96.7822 72.6738 96.824 72.6532C96.8657 72.6326 96.9111 72.6205 96.9575 72.6176C97.004 72.6148 97.0505 72.6212 97.0945 72.6365C97.1384 72.6518 97.1789 72.6757 97.2135 72.7068C97.2481 72.7379 97.2762 72.7756 97.2961 72.8176C97.3159 72.8597 97.3273 72.9053 97.3293 72.9518C97.3314 72.9983 97.3242 73.0447 97.3081 73.0884C97.2921 73.1321 97.2675 73.1721 97.2358 73.2062C97.0053 73.4626 96.7677 73.7227 96.523 73.9864C96.4903 74.0219 96.4506 74.0502 96.4063 74.0695C96.3621 74.0888 96.3144 74.0988 96.2661 74.0987Z" fill="white"/>
<path d="M81.5917 51.5426C81.5321 51.5426 81.4735 51.5273 81.4214 51.4983C81.3693 51.4693 81.3255 51.4275 81.2941 51.3769C81.2627 51.3262 81.2447 51.2684 81.2418 51.2089C81.239 51.1494 81.2514 51.0901 81.2778 51.0367C81.5632 50.4594 81.7174 50.1056 81.719 50.1021C81.7563 50.0173 81.8257 49.9507 81.9119 49.9169C81.9982 49.8831 82.0944 49.8848 82.1794 49.9218C82.2644 49.9587 82.3313 50.0278 82.3655 50.1139C82.3997 50.2 82.3984 50.2962 82.3618 50.3813C82.3554 50.3962 82.2001 50.7528 81.906 51.3473C81.877 51.4059 81.8322 51.4553 81.7767 51.4898C81.7212 51.5243 81.6571 51.5426 81.5917 51.5426Z" fill="white"/>
<path d="M64.6302 68.3656C64.5622 68.3656 64.4956 68.3457 64.4386 68.3085C64.3816 68.2713 64.3367 68.2183 64.3094 68.156C64.282 68.0937 64.2734 68.0247 64.2846 67.9576C64.2957 67.8905 64.3262 67.828 64.3723 67.7779C64.872 67.234 65.3471 66.6977 65.7846 66.1841C65.8142 66.1484 65.8507 66.119 65.8918 66.0975C65.9329 66.076 65.9778 66.0629 66.0241 66.0589C66.0703 66.0549 66.1168 66.0601 66.161 66.0743C66.2052 66.0884 66.2461 66.1112 66.2814 66.1412C66.3167 66.1713 66.3457 66.2081 66.3667 66.2495C66.3877 66.2908 66.4003 66.336 66.4037 66.3822C66.4071 66.4285 66.4013 66.475 66.3866 66.519C66.3719 66.563 66.3486 66.6036 66.3181 66.6386C65.875 67.1589 65.3941 67.7018 64.8883 68.2522C64.8555 68.288 64.8156 68.3166 64.7712 68.3361C64.7268 68.3556 64.6787 68.3657 64.6302 68.3656ZM67.4008 65.0975C67.3354 65.0975 67.2713 65.0792 67.2157 65.0446C67.1602 65.0101 67.1155 64.9607 67.0866 64.902C67.0577 64.8433 67.0458 64.7778 67.0522 64.7127C67.0586 64.6476 67.0831 64.5856 67.1229 64.5337C67.5816 63.936 67.9953 63.3562 68.3523 62.8113C68.3775 62.7728 68.4101 62.7397 68.4481 62.7138C68.4861 62.6878 68.5289 62.6697 68.574 62.6603C68.619 62.6509 68.6655 62.6505 68.7107 62.659C68.7559 62.6676 68.799 62.685 68.8375 62.7102C68.876 62.7354 68.9092 62.768 68.9351 62.806C68.961 62.844 68.9792 62.8868 68.9886 62.9319C68.998 62.9769 68.9984 63.0234 68.9899 63.0686C68.9813 63.1138 68.9639 63.1569 68.9387 63.1954C68.5721 63.755 68.1483 64.349 67.679 64.9604C67.6463 65.0031 67.6041 65.0377 67.5559 65.0615C67.5076 65.0852 67.4545 65.0976 67.4008 65.0975ZM69.8234 63.1846C69.7342 63.1844 69.6486 63.1502 69.5838 63.089C69.519 63.0278 69.48 62.9442 69.4746 62.8553C69.4692 62.7663 69.498 62.6786 69.5549 62.6101C69.6119 62.5416 69.6929 62.4974 69.7813 62.4864C70.4585 62.3991 71.1205 62.2191 71.7486 61.9515C71.8343 61.9155 71.9308 61.9151 72.0169 61.9503C72.1029 61.9855 72.1715 62.0534 72.2074 62.1392C72.2434 62.2249 72.2438 62.3214 72.2086 62.4074C72.1734 62.4935 72.1054 62.562 72.0197 62.598C71.3322 62.8903 70.6078 63.0868 69.8668 63.1821C69.8524 63.1838 69.8379 63.1846 69.8234 63.1846ZM67.6926 63.1129C67.6703 63.1128 67.648 63.1107 67.626 63.1066C66.8925 62.9614 66.1825 62.7158 65.516 62.3768C65.4337 62.3346 65.3714 62.2617 65.3426 62.1738C65.3138 62.0859 65.321 61.9902 65.3625 61.9075C65.404 61.8249 65.4765 61.762 65.5642 61.7326C65.6519 61.7031 65.7476 61.7096 65.8306 61.7504C66.4395 62.0605 67.0881 62.2852 67.7583 62.4183C67.8439 62.4347 67.9203 62.4825 67.9726 62.5522C68.0249 62.622 68.0493 62.7087 68.0411 62.7954C68.0328 62.8822 67.9926 62.9628 67.9282 63.0215C67.8637 63.0802 67.7798 63.1128 67.6926 63.1129ZM73.7575 61.5908C73.6827 61.5909 73.6098 61.567 73.5495 61.5226C73.4892 61.4782 73.4447 61.4157 73.4225 61.3442C73.4003 61.2727 73.4016 61.196 73.4262 61.1253C73.4507 61.0546 73.4973 60.9936 73.559 60.9513C74.133 60.5541 74.6775 60.1159 75.1884 59.6403C75.2222 59.6091 75.2618 59.5848 75.305 59.5689C75.3481 59.5529 75.394 59.5457 75.44 59.5475C75.486 59.5493 75.5312 59.5601 75.573 59.5794C75.6148 59.5987 75.6524 59.626 75.6836 59.6598C75.7149 59.6936 75.7391 59.7332 75.7551 59.7764C75.771 59.8196 75.7783 59.8655 75.7765 59.9115C75.7746 59.9574 75.7638 60.0026 75.7445 60.0444C75.7252 60.0862 75.6979 60.1238 75.6641 60.155C75.1284 60.6535 74.5573 61.1126 73.9553 61.5288C73.897 61.5692 73.8278 61.5908 73.7568 61.5908H73.7575ZM69.7168 61.4998C69.6573 61.4998 69.5989 61.4846 69.5469 61.4557C69.4949 61.4268 69.4511 61.3851 69.4197 61.3347C69.3882 61.2842 69.3701 61.2265 69.3671 61.1671C69.3641 61.1077 69.3762 61.0486 69.4024 60.9952C69.7144 60.3863 69.946 59.7396 70.0915 59.0712C70.1092 58.9799 70.1624 58.8994 70.2394 58.8474C70.3165 58.7954 70.411 58.7761 70.5023 58.7938C70.5935 58.8114 70.674 58.8646 70.726 58.9417C70.7781 59.0187 70.7974 59.1132 70.7797 59.2045C70.6225 59.9336 70.3711 60.6392 70.0318 61.3034C70.0029 61.3625 69.958 61.4122 69.9021 61.4469C69.8463 61.4816 69.7819 61.5 69.7161 61.4998H69.7168ZM63.9125 61.2079C63.8197 61.208 63.7308 61.1712 63.6651 61.1058C63.0658 60.5087 62.762 59.8722 62.762 59.2119C62.7621 59.1069 62.7699 59.002 62.7854 58.8982C62.7992 58.8063 62.8489 58.7236 62.9237 58.6683C62.9984 58.6131 63.092 58.5897 63.184 58.6035C63.2759 58.6173 63.3586 58.667 63.4138 58.7418C63.4691 58.8165 63.4924 58.9101 63.4786 59.0021C63.4682 59.0717 63.463 59.1419 63.4629 59.2123C63.4629 59.6788 63.6974 60.1489 64.1599 60.6097C64.209 60.6586 64.2426 60.7211 64.2562 60.7891C64.2698 60.8571 64.2629 60.9276 64.2364 60.9918C64.2099 61.0559 64.165 61.1107 64.1073 61.1492C64.0497 61.1878 63.9819 61.2084 63.9125 61.2084V61.2079ZM76.9172 58.7081C76.8499 58.7081 76.784 58.6886 76.7275 58.6522C76.6709 58.6157 76.6261 58.5637 76.5983 58.5024C76.5705 58.4411 76.5609 58.3731 76.5707 58.3065C76.5806 58.2399 76.6094 58.1776 76.6537 58.1269C77.0973 57.6199 77.5431 57.0649 77.9787 56.4774C78.0343 56.4034 78.1169 56.3545 78.2084 56.3412C78.3 56.3279 78.3931 56.3513 78.4674 56.4064C78.5418 56.4615 78.5913 56.5438 78.6052 56.6353C78.6192 56.7267 78.5963 56.82 78.5418 56.8947C78.095 57.4975 77.6372 58.0673 77.181 58.5885C77.1481 58.6263 77.1074 58.6565 77.0618 58.6771C77.0161 58.6977 76.9666 58.7083 76.9165 58.7081H76.9172ZM64.317 57.5796C64.2435 57.5796 64.1718 57.5565 64.1121 57.5135C64.0525 57.4705 64.0078 57.4098 63.9846 57.34C63.9613 57.2702 63.9606 57.1949 63.9825 57.1247C64.0045 57.0545 64.0479 56.993 64.1068 56.9488C64.7191 56.5001 65.4069 56.1645 66.1374 55.958C66.2259 55.9346 66.32 55.9467 66.3997 55.9917C66.4793 56.0367 66.5383 56.1111 66.5638 56.199C66.5893 56.2868 66.5795 56.3812 66.5363 56.4619C66.4932 56.5426 66.4202 56.6033 66.333 56.6309C65.6844 56.8151 65.0733 57.1123 64.528 57.5089C64.467 57.5548 64.3927 57.5794 64.3164 57.5791L64.317 57.5796ZM70.1766 57.4156C70.1181 57.4156 70.0605 57.401 70.009 57.373C69.9576 57.345 69.914 57.3046 69.8822 57.2554C69.5078 56.6765 68.823 56.4854 68.3146 56.4271C68.2685 56.4223 68.2238 56.4084 68.1831 56.3862C68.1424 56.364 68.1066 56.334 68.0776 56.2979C68.0486 56.2617 68.027 56.2202 68.0142 56.1757C68.0013 56.1311 67.9974 56.0845 68.0027 56.0385C68.008 55.9924 68.0224 55.9479 68.045 55.9075C68.0676 55.867 68.098 55.8315 68.1345 55.8029C68.1709 55.7742 68.2127 55.7531 68.2573 55.7408C68.302 55.7284 68.3487 55.725 68.3946 55.7308C69.3389 55.8392 70.0568 56.2354 70.4707 56.8748C70.5049 56.9277 70.5243 56.9889 70.5267 57.0519C70.5291 57.1149 70.5144 57.1774 70.4843 57.2327C70.4541 57.2881 70.4096 57.3343 70.3554 57.3665C70.3012 57.3987 70.2394 57.4157 70.1763 57.4156H70.1766ZM79.4785 55.2709C79.4155 55.2708 79.3537 55.2538 79.2996 55.2217C79.2455 55.1895 79.2011 55.1434 79.1709 55.0881C79.1408 55.0328 79.1262 54.9705 79.1285 54.9075C79.1308 54.8446 79.15 54.7835 79.1841 54.7306C79.56 54.147 79.9297 53.535 80.2831 52.9115C80.3056 52.8711 80.3359 52.8356 80.3722 52.8069C80.4085 52.7783 80.4501 52.7571 80.4946 52.7446C80.5391 52.7322 80.5857 52.7286 80.6316 52.7342C80.6774 52.7398 80.7218 52.7544 80.762 52.7772C80.8022 52.8 80.8375 52.8305 80.8659 52.867C80.8943 52.9035 80.9152 52.9453 80.9273 52.9899C80.9395 53.0345 80.9427 53.081 80.9368 53.1269C80.9309 53.1727 80.916 53.217 80.8929 53.257C80.533 53.892 80.1564 54.5154 79.7734 55.1101C79.7416 55.1597 79.6978 55.2005 79.6461 55.2287C79.5944 55.2569 79.5364 55.2716 79.4775 55.2714L79.4785 55.2709Z" fill="white"/>
<path d="M62.4074 70.6811C62.3382 70.6812 62.2705 70.6607 62.2129 70.6222C62.1553 70.5838 62.1103 70.5292 62.0838 70.4653C62.0572 70.4013 62.0501 70.331 62.0635 70.263C62.0768 70.1951 62.11 70.1326 62.1589 70.0835C62.4112 69.8312 62.6563 69.5828 62.8943 69.3382C62.9591 69.2716 63.0478 69.2336 63.1407 69.2324C63.2337 69.2312 63.3233 69.267 63.3899 69.3318C63.4564 69.3967 63.4945 69.4854 63.4957 69.5783C63.4969 69.6713 63.4611 69.7609 63.3962 69.8274C63.1561 70.0739 62.9089 70.3243 62.6548 70.5788C62.6223 70.6113 62.5838 70.637 62.5413 70.6546C62.4989 70.6722 62.4533 70.6812 62.4074 70.6811Z" fill="white"/>
</svg>
