<svg width="141" height="49" viewBox="0 0 141 49" fill="none" xmlns="http://www.w3.org/2000/svg">
<rect x="0.5" y="0.5" width="140" height="48" rx="8" fill="white"/>
<rect x="0.5" y="0.5" width="140" height="48" rx="8" stroke="#CCCDCE"/>
<g clip-path="url(#clip0_1_1050)">
<path d="M74.2037 29.6244C74.9629 29.0475 75.6038 28.3667 76.0497 27.5158C76.0779 27.4623 76.1028 27.4073 76.1521 27.3058C74.2446 27.3058 72.3723 27.3058 70.5 27.3058C70.5 25.4359 70.5 23.5664 70.5 21.6965C70.578 21.6936 70.656 21.6889 70.734 21.6889C74.3258 21.6885 77.9182 21.6885 81.5105 21.6885C81.9987 21.6885 82.2392 21.8966 82.3139 22.3796C82.375 22.7743 82.438 23.1689 82.5005 23.5636C82.5005 24.204 82.5005 24.8448 82.5005 25.4852C82.4558 25.5035 82.4568 25.5435 82.454 25.582C82.3722 26.6015 82.1448 27.5905 81.7887 28.5471C81.0398 30.5575 79.8525 32.263 78.2015 33.6396C78.1437 33.5767 78.0887 33.5109 78.0281 33.4503C76.753 32.1747 75.4783 30.8995 74.2037 29.6244Z" fill="#2B76E5"/>
<path d="M64.4354 26.3619C64.7826 27.3801 65.3145 28.284 66.0958 29.0311C67.2887 30.1713 68.7095 30.7727 70.3605 30.8272C70.407 30.8286 70.4535 30.8333 70.5 30.8366C70.5 32.7244 70.5 34.6127 70.5 36.5005C70.1721 36.5005 69.8436 36.5005 69.5157 36.5005C69.2803 36.3877 69.02 36.4117 68.7724 36.3722C65.5353 35.8549 62.9427 34.2655 60.9483 31.68C60.6772 31.3285 60.4197 30.9654 60.2177 30.5669C60.3013 30.4852 60.3854 30.4044 60.4681 30.3222C61.7907 29.0019 63.1133 27.6822 64.4354 26.3619Z" fill="#00C55F"/>
<path d="M70.5005 36.5005C70.5005 34.6127 70.5005 32.7244 70.5005 30.8366C71.8541 30.7957 73.0972 30.418 74.2042 29.6245C75.4788 30.8996 76.7535 32.1752 78.0272 33.4508C78.0873 33.5114 78.1428 33.5767 78.2006 33.6401C77.9938 33.8421 77.7599 34.0103 77.5273 34.179C75.9548 35.3169 74.2192 36.063 72.2957 36.3666C72.01 36.4117 71.7145 36.3985 71.4383 36.5009C71.1254 36.5005 70.8129 36.5005 70.5005 36.5005Z" fill="#00A967"/>
<path d="M60.2224 18.4208C60.9995 17.0715 62.0223 15.9363 63.2524 14.9887C65.0419 13.6097 67.0641 12.8002 69.3104 12.5606C69.705 12.5183 70.1025 12.4812 70.5014 12.5089C70.5014 14.3943 70.5014 16.2798 70.5014 18.1652C68.9557 18.1958 67.5805 18.6886 66.3993 19.6941C65.5179 20.4439 64.8893 21.3704 64.5035 22.4614C64.48 22.5272 64.4537 22.592 64.4283 22.6573C64.3607 22.5821 64.2968 22.5032 64.2254 22.4318C62.8915 21.0942 61.5567 19.7575 60.2224 18.4208Z" fill="#FE5501"/>
<path d="M60.2224 18.4208C61.5567 19.7575 62.8911 21.0942 64.2249 22.4318C64.2963 22.5032 64.3602 22.5821 64.4279 22.6573C64.2991 23.1943 64.1916 23.7337 64.1732 24.2886C64.1497 24.9943 64.2587 25.6821 64.4354 26.362C63.1133 27.6822 61.7907 29.0024 60.4681 30.3222C60.3854 30.4049 60.3013 30.4852 60.2177 30.567C59.5642 29.5197 59.1084 28.3893 58.8261 27.1912C58.0988 24.1039 58.6034 21.2051 60.1806 18.4749C60.1919 18.4551 60.2083 18.4387 60.2224 18.4208Z" fill="#FED701"/>
<path d="M70.5009 18.1652C70.5009 16.2798 70.5009 14.3943 70.5009 12.5089C72.3183 12.4849 74.0303 12.9167 75.6611 13.7004C76.5435 14.1242 77.3544 14.6588 78.1118 15.2771C78.4998 15.5938 78.536 16.0613 78.1813 16.4174C77.2059 17.3975 76.2259 18.3724 75.2434 19.3454C74.9427 19.6433 74.6115 19.6724 74.2728 19.4253C73.3937 18.783 72.4183 18.3818 71.3415 18.2338C71.0629 18.1957 70.781 18.1873 70.5009 18.1652Z" fill="#FE0E01"/>
<path d="M70.5 21.696C70.5 23.566 70.5 25.4354 70.5 27.3054C70.0861 27.2871 69.8009 27.0193 69.7995 26.6166C69.7938 25.2057 69.7938 23.7948 69.7995 22.3843C69.8009 21.9822 70.0875 21.7134 70.5 21.696Z" fill="#1688FB"/>
</g>
<defs>
<clipPath id="clip0_1_1050">
<rect width="24" height="24.0009" fill="white" transform="translate(58.5 12.4995)"/>
</clipPath>
</defs>
</svg>
