<svg width="14" height="11" viewBox="0 0 14 11" fill="none" xmlns="http://www.w3.org/2000/svg">
<path fill-rule="evenodd" clip-rule="evenodd" d="M8.53576 0C8.73116 0 8.91855 0.0808552 9.05672 0.224779L10.3442 1.56592C10.4824 1.70984 10.6698 1.7907 10.8652 1.7907H13.0158C13.4227 1.7907 13.7526 2.13429 13.7526 2.55814V10.2326C13.7526 10.6564 13.4227 11 13.0158 11H0.736744C0.329852 11 0 10.6564 0 10.2326V2.55814C0 2.13429 0.329852 1.7907 0.736744 1.7907H3.37855C3.57395 1.7907 3.76134 1.70984 3.89951 1.56592L5.187 0.224779C5.32517 0.0808552 5.51256 0 5.70796 0H8.53576ZM6.87628 2.81395C5.11308 2.81395 3.68372 4.30287 3.68372 6.13953C3.68372 7.9762 5.11308 9.46512 6.87628 9.46512C8.63948 9.46512 10.0688 7.9762 10.0688 6.13953C10.0688 4.30287 8.63948 2.81395 6.87628 2.81395ZM6.87628 3.5814C8.23259 3.5814 9.33209 4.72671 9.33209 6.13953C9.33209 7.55236 8.23259 8.69767 6.87628 8.69767C5.51997 8.69767 4.42047 7.55236 4.42047 6.13953C4.42047 4.72671 5.51997 3.5814 6.87628 3.5814ZM11.0512 2.55814C10.7799 2.55814 10.56 2.7872 10.56 3.06977C10.56 3.35233 10.7799 3.5814 11.0512 3.5814C11.3224 3.5814 11.5423 3.35233 11.5423 3.06977C11.5423 2.7872 11.3224 2.55814 11.0512 2.55814ZM2.7014 0.511628C2.83703 0.511628 2.94698 0.62616 2.94698 0.767442V1.27907C2.94698 1.42035 2.83703 1.53488 2.7014 1.53488H1.71907C1.58344 1.53488 1.47349 1.42035 1.47349 1.27907V0.767442C1.47349 0.62616 1.58344 0.511628 1.71907 0.511628H2.7014Z" fill="#8E8E93"/>
</svg>
