<svg width="126" height="40" viewBox="0 0 126 40" fill="none" xmlns="http://www.w3.org/2000/svg">
<g clip-path="url(#clip0_1_1223)">
<path d="M60.3213 38.318C55.0703 38.318 51.4602 34.4381 51.4602 28.0723C51.4602 21.7064 55.0703 17.8228 60.3213 17.8228C65.5723 17.8228 69.1824 21.7046 69.1824 28.0723C69.1824 34.4399 65.5723 38.318 60.3213 38.318ZM60.3213 21.7319C57.2031 21.7319 55.0459 24.5254 55.0459 28.0723C55.0459 31.7302 57.2031 34.3817 60.3213 34.3817C63.5083 34.3817 65.5952 31.701 65.5952 28.0723C65.5952 24.4981 63.5083 21.7319 60.3213 21.7319Z" fill="#1F3D8A"/>
<path d="M79.4937 18.2996H71.7585V37.843H75.4145V32.3124H79.4937C83.666 32.256 85.7759 29.2187 85.7759 25.3024C85.7759 21.5334 83.6905 18.2941 79.4937 18.2941M79.4937 28.3197H75.4145V22.4288H79.4937C81.2292 22.4288 82.1199 23.8246 82.1199 25.3897C82.1199 26.9548 81.2522 28.3215 79.4937 28.3215" fill="#1F3D8A"/>
<path d="M91.5644 22.1769H86.5717V18.2952H100.19V22.1769H95.1975V37.8422H91.5644V22.1769Z" fill="#1F3D8A"/>
<path d="M105.909 18.2952H102.276V37.8404H105.909V18.2952Z" fill="#1F3D8A"/>
<path d="M111.441 37.8422H107.502L114.863 18.2952H118.848L126.209 37.8422H122.247L121.052 34.4901H115.008L116.391 30.6374H119.668L116.856 22.7083L111.441 37.8422Z" fill="#1F3D8A"/>
<path d="M45.7172 31.0386C48.8583 29.6974 49.4924 27.4371 49.5153 24.8948C49.5137 21.4516 47.4054 18.2996 43.4439 18.2996H35.6614V37.843H39.3189V22.0376H43.4439C45.155 22.0376 45.8883 23.6573 45.9051 24.9985C45.9051 26.2269 45.1779 27.7283 43.4912 27.7283H41.4623V30.6164L41.9665 31.4153L46.1633 37.8376H50.218V37.5027L45.7172 31.0386Z" fill="#1F3D8A"/>
<path d="M26.1558 40.2039H5.76145C4.81003 40.2024 3.89792 39.7516 3.22516 38.9502C2.5524 38.1488 2.17392 37.0624 2.1727 35.929V23.8379C1.60139 23.7387 1.07026 23.4297 0.653285 22.954C0.236305 22.4783 -0.0457827 21.8596 -0.153706 21.184C-0.261629 20.5084 -0.190017 19.8095 0.0511602 19.1846C0.292337 18.5597 0.691079 18.04 1.19187 17.6978L2.60201 16.7369L14.0023 8.71678C14.5498 8.33209 15.1733 8.12753 15.8089 8.12401C16.4446 8.12049 17.0696 8.31815 17.6201 8.69676L29.3167 16.7387L30.6627 17.6068C31.1744 17.9378 31.5857 18.452 31.8386 19.0768C32.0914 19.7016 32.1729 20.4052 32.0715 21.0882C31.9702 21.7712 31.6911 22.399 31.2737 22.8826C30.8564 23.3663 30.322 23.6814 29.746 23.7833V35.929C29.7448 37.0624 29.3663 38.1488 28.6936 38.9502C28.0208 39.7516 27.1087 40.2024 26.1573 40.2039M15.8265 10.1599C15.4903 10.1601 15.1602 10.2669 14.8701 10.4693L3.46215 18.4948L2.04131 19.4648C1.84308 19.6064 1.6887 19.8208 1.6013 20.0757C1.51391 20.3306 1.49819 20.6123 1.55652 20.8788C1.61485 21.1452 1.74407 21.3819 1.92484 21.5535C2.1056 21.7251 2.32818 21.8224 2.55923 21.8306L3.88076 21.8507V35.9254C3.88197 36.5189 4.08055 37.0877 4.43303 37.5072C4.78551 37.9268 5.26317 38.1629 5.76145 38.1638H26.1558C26.6539 38.1629 27.1314 37.9267 27.4836 37.5071C27.8359 37.0876 28.0341 36.5188 28.0349 35.9254V21.7997L29.3534 21.7815C29.5888 21.776 29.8161 21.6781 30.0001 21.503C30.184 21.3279 30.3143 21.0854 30.3707 20.813C30.4271 20.5407 30.4065 20.2539 30.3121 19.9969C30.2176 19.74 30.0546 19.5274 29.8484 19.392L28.4826 18.5094L16.766 10.4547C16.4804 10.2583 16.1563 10.1553 15.8265 10.1563" fill="#1F3D8A"/>
<path d="M14.4541 35.953C14.4029 35.9532 14.3517 35.9477 14.3013 35.9366C13.1027 35.6827 11.9632 35.1274 10.9588 34.3077C9.95445 33.4881 9.10829 32.4228 8.4767 31.183C7.84511 29.9431 7.4426 28.5572 7.29599 27.1175C7.14938 25.6778 7.26205 24.2175 7.62647 22.8337C7.66018 22.7062 7.71464 22.5879 7.78674 22.4854C7.85884 22.383 7.94717 22.2985 8.04669 22.2367C8.14621 22.175 8.25497 22.1372 8.36676 22.1255C8.47854 22.1138 8.59117 22.1284 8.69821 22.1686C8.80524 22.2087 8.90459 22.2736 8.99058 22.3595C9.07657 22.4453 9.14752 22.5506 9.19937 22.6691C9.25122 22.7877 9.28297 22.9172 9.29279 23.0504C9.30261 23.1835 9.29032 23.3177 9.25661 23.4452C8.96398 24.5535 8.87322 25.7234 8.99038 26.8768C9.10755 28.0302 9.42995 29.1405 9.93605 30.1337C10.4422 31.1269 11.1203 31.98 11.9252 32.6361C12.7302 33.2922 13.6434 33.7362 14.6038 33.9385C14.8156 33.9815 15.0059 34.118 15.1369 34.3208C15.2679 34.5236 15.33 34.7777 15.3107 35.0325C15.2915 35.2874 15.1923 35.5242 15.0329 35.6958C14.8736 35.8674 14.6658 35.9612 14.4511 35.9585" fill="#008C61"/>
<path d="M17.2072 35.9361C16.994 35.9362 16.7884 35.8412 16.631 35.6698C16.4735 35.4985 16.3756 35.2632 16.3565 35.0102C16.3373 34.7572 16.3983 34.5048 16.5275 34.3027C16.6566 34.1006 16.8446 33.9633 17.0544 33.9179C17.9852 33.7121 18.8701 33.279 19.6534 32.6458C20.4367 32.0126 21.1015 31.1931 21.6058 30.2388C22.1101 29.2845 22.4431 28.2161 22.5838 27.101C22.7244 25.9859 22.6697 24.8482 22.423 23.7595C22.3938 23.6304 22.3863 23.4958 22.4008 23.3633C22.4153 23.2307 22.4515 23.1029 22.5075 22.987C22.5635 22.8712 22.638 22.7696 22.7269 22.6881C22.8159 22.6066 22.9174 22.5467 23.0257 22.512C23.1341 22.4772 23.2471 22.4682 23.3584 22.4855C23.4696 22.5027 23.577 22.5459 23.6742 22.6126C23.7715 22.6792 23.8567 22.7681 23.9252 22.874C23.9936 22.9799 24.0438 23.1009 24.073 23.2299C24.3807 24.5902 24.4487 26.0116 24.2726 27.4047C24.0965 28.7978 23.6802 30.1323 23.0499 31.3244C22.4196 32.5164 21.5889 33.5401 20.6102 34.331C19.6315 35.1218 18.5259 35.6628 17.363 35.9197C17.3126 35.9303 17.2615 35.9358 17.2103 35.9361" fill="#973534"/>
<path d="M22.0142 21.4489C21.8802 21.4492 21.7481 21.4118 21.6286 21.3396C21.5092 21.2675 21.4057 21.1628 21.3267 21.034C20.689 20.0104 19.86 19.1778 18.9054 18.6019C17.9507 18.0261 16.8967 17.7229 15.8267 17.7164H15.8129C14.7385 17.716 13.679 18.0156 12.7193 18.5911C11.7596 19.1666 10.9266 20.002 10.2869 21.0303C10.2202 21.1379 10.1364 21.2287 10.0402 21.2976C9.94403 21.3666 9.83739 21.4123 9.72638 21.4322C9.61537 21.452 9.50216 21.4456 9.39322 21.4134C9.28428 21.3811 9.18174 21.3236 9.09145 21.2441C9.00117 21.1647 8.92491 21.0648 8.86703 20.9502C8.80915 20.8357 8.77078 20.7087 8.75411 20.5764C8.73744 20.4442 8.7428 20.3093 8.76988 20.1796C8.79696 20.0498 8.84523 19.9277 8.91194 19.8201C9.7103 18.5389 10.7489 17.4976 11.9449 16.7791C13.1409 16.0606 14.4612 15.6849 15.8007 15.6818H15.8175C17.155 15.6885 18.4727 16.0665 19.6661 16.7858C20.8596 17.5051 21.8958 18.5459 22.6925 19.8256C22.7858 19.9765 22.8423 20.1551 22.8559 20.3419C22.8695 20.5286 22.8396 20.7162 22.7695 20.884C22.6994 21.0518 22.5918 21.1933 22.4585 21.2929C22.3252 21.3926 22.1715 21.4466 22.0142 21.4489Z" fill="#1F3D8A"/>
</g>
<defs>
<clipPath id="clip0_1_1223">
<rect width="126" height="40" fill="white"/>
</clipPath>
</defs>
</svg>
