<svg width="141" height="49" viewBox="0 0 141 49" fill="none" xmlns="http://www.w3.org/2000/svg">
<rect x="0.5" y="0.5" width="140" height="48" rx="8" fill="white"/>
<rect x="0.5" y="0.5" width="140" height="48" rx="8" stroke="#CCCDCE"/>
<g clip-path="url(#clip0_1_1059)">
<path d="M58.5 25.5625C58.5 24.8908 58.5 24.2191 58.5 23.5474C58.5789 23.5136 58.5474 23.4403 58.5535 23.3844C58.8124 20.9687 59.6954 18.8086 61.2496 16.9406C65.0247 12.4032 71.3793 11.2628 76.4962 14.1886C81.043 16.7879 83.3981 22.182 82.1825 27.275C81.3746 30.6606 79.4408 33.2313 76.4436 34.9941C75.1891 35.732 73.8311 36.197 72.3854 36.423C72.3798 36.3811 72.3722 36.3506 72.3722 36.3201C72.3718 33.6183 72.3732 30.9161 72.3675 28.2144C72.3671 28.0533 72.4338 28.0434 72.5611 28.0439C73.3262 28.0481 74.0918 28.0458 74.857 28.0458C75.1909 28.0458 75.1815 28.0444 75.2295 27.716C75.3704 26.747 75.5089 25.7776 75.6738 24.8128C75.7123 24.5873 75.648 24.5737 75.4638 24.5747C74.4958 24.5812 73.5272 24.5784 72.5587 24.577C72.4737 24.577 72.3647 24.6151 72.3704 24.454C72.3981 23.6122 72.3182 22.7682 72.4159 21.9274C72.507 21.1449 73.0871 20.5906 73.8744 20.4953C74.4667 20.4234 75.0594 20.468 75.6517 20.4568C75.7804 20.4544 75.8452 20.4436 75.8438 20.2844C75.8354 19.4098 75.8372 18.5352 75.8429 17.6606C75.8438 17.5324 75.8011 17.4774 75.6785 17.4624C74.5564 17.3243 73.4328 17.1688 72.3013 17.3206C71.2844 17.4568 70.3896 17.8555 69.6982 18.6446C68.9603 19.4868 68.6653 20.4972 68.6301 21.5869C68.6 22.515 68.6193 23.4455 68.6273 24.3746C68.6287 24.5366 68.5892 24.5841 68.4225 24.5826C67.5559 24.5737 66.6888 24.5873 65.8222 24.5723C65.6057 24.5686 65.5709 24.6357 65.5728 24.8321C65.5827 25.8316 65.5817 26.8311 65.5733 27.8307C65.5719 28.0035 65.6118 28.0528 65.7898 28.0509C66.6564 28.0406 67.5235 28.0538 68.3901 28.0411C68.593 28.0383 68.6278 28.1007 68.6278 28.2881C68.6217 30.9199 68.6235 33.5516 68.6235 36.1834C68.6235 36.2604 68.6235 36.3375 68.6235 36.4168C67.469 36.2778 66.0636 35.8344 64.7969 35.1237C61.3535 33.1923 59.2994 30.2722 58.6348 26.3774C58.5883 26.1059 58.616 25.8217 58.5 25.5625Z" fill="#0079F9"/>
</g>
<defs>
<clipPath id="clip0_1_1059">
<rect width="24" height="23.8459" fill="white" transform="translate(58.5 12.577)"/>
</clipPath>
</defs>
</svg>
